<svg height="512pt" viewBox="0 0 512 512" width="512pt" xmlns="http://www.w3.org/2000/svg"><path d="m496.515625 511.5h-481.53125c-5.023437 0-9.714844-2.804688-12.488281-7.464844-2.777344-4.664062-3.269532-10.566406-1.3125-15.71875 20.335937-53.546875 29.800781-97.417968 29.777344-138.058594-.011719-26.257812-3.984376-53.816406-12.148438-84.253906-1.34375-5.003906-.5-10.421875 2.273438-14.636718 2.773437-4.214844 7.160156-6.738282 11.851562-6.820313l447.359375-7.777344c4.738281-.042969 9.246094 2.339844 12.132813 6.535157 2.882812 4.195312 3.816406 9.664062 2.507812 14.742187-6.648438 25.832031-14.410156 65.480469-14.398438 92.191406.019532 40.761719 9.480469 84.636719 29.78125 138.078125 1.957032 5.152344 1.464844 11.054688-1.3125 15.714844-2.777343 4.664062-7.46875 7.46875-12.492187 7.46875zm0 0" fill="#f5f0eb"/><path d="m510.316406 488.316406c-20.296875-53.4375-29.757812-97.3125-29.777344-138.078125-.015624-26.710937 7.746094-66.359375 14.398438-92.191406 1.308594-5.078125.375-10.546875-2.511719-14.742187-2.886719-4.191407-7.390625-6.578126-12.128906-6.535157l-224.546875 3.90625v270.824219h240.765625c5.023437 0 9.714844-2.804688 12.488281-7.464844 2.777344-4.664062 3.269532-10.566406 1.3125-15.71875zm0 0" fill="#ebe1dc"/><path d="m255.75 111.5c-8.277344 0-14.984375-6.710938-14.984375-14.984375v-81.53125c0-8.273437 6.707031-14.984375 14.984375-14.984375s14.984375 6.710938 14.984375 14.984375v81.53125c.003906 8.273437-6.707031 14.984375-14.984375 14.984375zm0 0" fill="#00347b"/><path d="m255.761719 0v111.5c8.269531-.007812 14.976562-6.714844 14.976562-14.984375v-81.53125c0-8.273437-6.707031-14.9765625-14.976562-14.984375zm0 0" fill="#001737"/><path d="m255.953125 92.148438c-2.539063-.042969-176.371094 157.292968-169.511719 157.292968l173.96875 3.03125zm0 0" fill="#c9001c"/><g fill-rule="evenodd"><path d="m255.75 238.015625 127.875-1.246094-127.855469-144.636719zm0 0" fill="#fdbf00"/><path d="m255.75 92.136719c-.007812 0-.011719-.003907-.019531-.003907l-2.148438.167969c-1.730469.246094-3.433593.785157-5.015625 1.640625l-240.714844 130.371094c-6.03125 3.265625-9.074218 10.207031-7.390624 16.855469 1.6875 6.648437 7.667968 11.304687 14.527343 11.304687h76.199219l36.6875-15.703125zm0 0" fill="#fdbf00"/><path d="m255.75 92.136719c.007812 0 .015625-.003907.019531-.003907l2.152344.167969c1.730469.246094 3.429687.785157 5.011719 1.640625l240.714844 130.371094c6.03125 3.265625 9.074218 10.207031 7.390624 16.855469-1.683593 6.648437-7.667968 11.304687-14.527343 11.304687h-76.199219l-36.6875-15.703125zm0 0" fill="#850012"/></g><path d="m128.285156 242.890625-95.347656 1.660156c-4.691406.082031-9.078125 2.601563-11.851562 6.816407-2.773438 4.214843-3.617188 9.632812-2.273438 14.636718 8.164062 30.4375 12.136719 57.996094 12.148438 84.253906.023437 40.640626-9.441407 84.511719-29.777344 138.0625-1.957032 5.152344-1.464844 11.050782 1.3125 15.714844 2.777344 4.660156 7.464844 7.464844 12.492187 7.464844h29.40625c22.402344-30.652344 42.121094-68.609375 56.652344-109.457031 18.917969-53.191407 28.324219-108.195313 27.238281-159.152344zm0 0" fill="#ff1f3e"/><path d="m383.464844 242.890625 95.34375 1.660156c4.691406.082031 9.078125 2.601563 11.855468 6.816407 2.773438 4.214843 3.613282 9.632812 2.273438 14.636718-8.164062 30.4375-12.136719 57.996094-12.152344 84.253906-.019531 40.640626 9.441406 84.511719 29.777344 138.0625 1.960938 5.152344 1.464844 11.050782-1.308594 15.714844-2.777344 4.664063-7.46875 7.464844-12.492187 7.464844h-29.40625c-22.40625-30.648438-42.121094-68.609375-56.652344-109.457031-18.917969-53.191407-28.328125-108.195313-27.238281-159.152344zm0 0" fill="#c9001c"/><path d="m387.261719 512c-68.972657-32.21875-105.488281-143.988281-116.542969-232.007812-1.121094-8.941407-1.613281-16.644532-1.613281-16.644532 0-8.070312-6.199219-24.003906-14.257813-24.382812-8.605468-.40625-15.710937 15.445312-15.710937 23.960937 0 0-1.019531 10.535157-3.089844 22.851563-18.664063 111.109375-65.148437 207.019531-111.804687 226.222656zm0 0" fill="#00347b"/><path d="m299.042969 61.386719h-43.292969c-8.273438 0-14.984375-6.710938-14.984375-14.988281v-34.742188c0-6.4375 5.21875-11.65625 11.65625-11.65625h46.289063c3.019531 0 6.003906 1.019531 8.21875 3.070312 3.65625 3.382813 4.710937 8.5625 2.902343 12.988282l-5.972656 14.632812 5.871094 14.382813c1.125 2.753906 1.296875 5.851562.265625 8.644531-1.734375 4.703125-6.148438 7.667969-10.953125 7.667969zm0 0" fill="#ff1f3e"/><path d="m255.75 236.769531v1.855469c0 35.167969-28.773438 63.9375-63.9375 63.9375-35.167969 0-63.9375-28.769531-63.9375-63.9375v-1.855469zm0 0" fill="#fc0023" fill-rule="evenodd"/><path d="m255.75 512h131.511719c-68.972657-32.21875-105.488281-143.988281-116.542969-232.007812-1.121094-8.941407-1.613281-16.644532-1.613281-16.644532 0-7.761718-5.738281-22.800781-13.355469-24.265625zm0 0" fill="#001737"/><path d="m383.625 236.769531v1.855469c0 35.167969-28.769531 63.9375-63.9375 63.9375-35.164062 0-63.9375-28.769531-63.9375-63.9375v-1.855469zm0 0" fill="#ffda2d" fill-rule="evenodd"/><path d="m17.441406 282.398438c-10.800781-11.460938-17.441406-26.878907-17.441406-43.773438v-1.855469h127.875v1.855469c0 35.167969-28.769531 63.9375-63.9375 63.9375-18.269531 0-34.816406-7.765625-46.496094-20.164062" fill="#ffda2d" fill-rule="evenodd"/><path d="m511.5 236.769531v1.855469c0 35.167969-28.769531 63.9375-63.9375 63.9375-35.164062 0-63.9375-28.769531-63.9375-63.9375v-1.855469zm0 0" fill="#a70017" fill-rule="evenodd"/><path d="m303.859375 30.691406 5.972656-14.632812c1.46875-3.59375 1.046875-7.683594-1.117187-10.90625-2.164063-3.21875-5.789063-5.152344-9.671875-5.152344h-43.28125v61.386719h43.28125c3.882812 0 7.507812-1.933594 9.671875-5.15625 2.164062-3.222657 2.585937-7.3125 1.117187-10.90625zm0 0" fill="#c9001c"/></svg>