<svg height="464pt" viewBox="0 0 464.00203 464" width="464pt" xmlns="http://www.w3.org/2000/svg"><path d="m280.945312 286.898438-24.800781 16.605468c-61.359375 41.214844-112.921875 95.390625-151.054687 158.707032l-1.089844 1.789062 1.929688-.800781c68-28.929688 128.820312-72.445313 178.160156-127.460938l19.910156-22.242187zm0 0" fill="#5f9548"/><path d="m256.992188 280-27.238282 12.570312c-67.832031 31.410157-129.027344 75.5-180.296875 129.894532l-1.457031 1.535156 2-.542969c71.660156-19.503906 138.863281-52.710937 197.886719-97.785156l24.113281-18.328125zm0 0" fill="#5f9548"/><path d="m234.609375 268.449219c-72.707031-14.527344-142.867187-18.398438-216.539063-.449219l-2.070312.503906 1.9375.800782c68.871094 28.128906 137.597656 46.136718 212.191406 42.152343l30.167969-1.601562 3.703125-35.535157zm0 0" fill="#5f9548"/><path d="m261.335938 297.128906-59.3125-1.128906c-69.488282 2.660156-137.671876 19.679688-200.253907 49.992188l-1.769531.855468 1.953125.273438c68.9375 9.664062 139.132813 4.972656 206.175781-13.777344l55.871094-15.839844zm0 0" fill="#5f9548"/><g fill="#7eb457"><path d="m382.511719 302.488281-18.511719-23.871093c-45.46875-58.777344-103.300781-106.84375-169.398438-140.800782l-1.859374-.960937.976562 1.898437c34.082031 66.539063 82.191406 124.898438 141.007812 171.046875l23.609376 18.449219zm0 0"/><path d="m388.929688 276.296875-14.945313-26c-37.449219-64.847656-86.988281-121.910156-145.9375-168.097656l-1.671875-1.308594.714844 1.941406c25.761718 69.679688 64.871094 133.664063 115.132812 188.367188l20.480469 22.402343zm0 0"/><path d="m398.984375 321.679688 10.015625-28.703126c24.78125-70.984374 34.878906-146.265624 29.671875-221.273437l-.144531-2.109375-1.03125 1.847656c-36.742188 65.648438-59.777344 138.074219-67.710938 212.886719l-3.199218 30.207031zm0 0"/><path d="m392.359375 286.121094 3.097656-30.511719c7.582031-76.207031-.695312-153.15625-24.304687-226.007813l-.671875-2.074218-.59375 2.042968c-21.132813 73.027344-26.683594 149.6875-16.285157 225l4.191407 30.695313zm0 0"/><path d="m372.144531 277.039062-4.585937-63.933593c-9.640625-74.644531-34.410156-146.539063-72.796875-211.28125l-1.082031-1.824219-.105469 2.121094c-3.542969 75.183594 8.300781 150.296875 34.800781 220.742187l22.328125 58.792969zm0 0"/></g><path d="m184.238281 264c-76.335937 0-103.140625-32-154.917969-88.175781l-29.320312-31.824219 29.320312-31.824219c51.777344-56.175781 78.582032-88.175781 154.917969-88.175781 66.210938.066406 119.828125 53.792969 119.761719 120 .066406 66.207031-53.550781 119.933594-119.761719 120zm0 0" fill="#95573a"/><path d="m278.726562 70.449219c-42.679687 114.726562-131.054687 149.550781-196.917968 158.65625 26.945312 22.632812 55.207031 34.894531 102.429687 34.894531 45.777344-.054688 87.527344-26.167969 107.609375-67.304688 20.082032-41.136718 14.992188-90.117187-13.121094-126.246093zm0 0" fill="#8f4d2e"/><path d="m191.769531 239.90625c-62.714843-1.839844-93.027343-29.097656-125.113281-57.953125l10.6875-11.902344c31.152344 28 58.046875 52.191407 114.886719 53.863281zm0 0" fill="#743b20"/><path d="m152.144531 67.410156-4.464843-15.371094c6.3125-1.816406 12.75-3.152343 19.265624-4l2.109376 15.859376c-5.71875.738281-11.371094 1.914062-16.910157 3.511718zm0 0" fill="#a36548"/><path d="m77.960938 118.882812-10.679688-11.914062c23.808594-21.351562 41.015625-36.800781 59.640625-46.550781l7.421875 14.175781c-16.847656 8.832031-32.574219 22.933594-56.382812 44.289062zm0 0" fill="#a36548"/><path d="m256 104c0 8.835938-7.164062 16-16 16s-16-7.164062-16-16 7.164062-16 16-16 16 7.164062 16 16zm0 0" fill="#662e13"/><path d="m280 152c0 8.835938-7.164062 16-16 16s-16-7.164062-16-16 7.164062-16 16-16 16 7.164062 16 16zm0 0" fill="#662e13"/><path d="m224 152c0 8.835938-7.164062 16-16 16s-16-7.164062-16-16 7.164062-16 16-16 16 7.164062 16 16zm0 0" fill="#662e13"/><path d="m417.65625 179.671875c-36.6875-35.574219-110.609375-21.597656-165.113281 31.28125-54.503907 52.878906-68.941407 124.535156-32.253907 160.105469 58.6875 56.917968 150.453126 60.214844 204.957032 7.367187 54.507812-52.847656 51.105468-141.839843-7.589844-198.753906zm0 0" fill="#95573a"/><path d="m420.09375 182.171875c-34.601562-37.546875-107.925781-26.257813-163.777344 25.210937-55.851562 51.472657-73.074218 123.632813-38.472656 161.179688 34.597656 37.542969 107.925781 26.253906 163.773438-25.214844 55.851562-51.46875 73.078124-123.632812 38.476562-161.175781zm0 0" fill="#e0e0de"/><path d="m382.070312 193.007812-61.679687 11.96875-43.175781 29.90625-37.007813 59.804688v47.847656l37.007813 11.960938 61.679687-23.917969 55.511719-53.832031 12.335938-47.847656zm0 0" fill="#c7c7c5"/><path d="m417.65625 179.671875c29.34375 28.457031 25.894531 80-4.527344 126.546875 1.984375 42.527344-7.320312 73.222656-20.722656 95.328125 12.0625-5.972656 23.125-13.769531 32.800781-23.121094 54.546875-52.824219 51.144531-141.839843-7.550781-198.753906zm0 0" fill="#8f4d2e"/></svg>