<svg height="395pt" viewBox="-75 0 395 395.94325" width="395pt" xmlns="http://www.w3.org/2000/svg"><path d="m212.097656 389.121094h-177.492187l-27.308594-382.292969h232.109375zm0 0" fill="#55a6ff"/><path d="m212.097656 389.121094v-6.828125h-171.136718l-26.332032-368.644531h217.445313l-26.785157 374.984374 6.808594.488282v-6.828125 6.828125l6.8125.480468 27.304688-382.292968c.136718-1.894532-.519532-3.746094-1.8125-5.136719-1.296875-1.390625-3.097656-2.171875-4.996094-2.171875h-232.109375c-1.898437 0-3.699219.78125-4.992187 2.171875-1.296876 1.390625-1.949219 3.238281-1.816407 5.136719l27.308594 382.292968c.253906 3.574219 3.226563 6.339844 6.808594 6.339844h177.492187c3.582032 0 6.554688-2.765625 6.8125-6.339844zm0 0" fill="#54596e"/><path d="m32.582031 361.8125 2.023438 27.308594h177.492187l2.023438-27.308594zm0 0" fill="#dfdfdf"/><path d="m32.582031 361.8125-6.808593.503906 2.027343 27.308594c.261719 3.570312 3.222657 6.316406 6.804688 6.316406h177.496093c3.582032 0 6.542969-2.746094 6.808594-6.316406l2.023438-27.308594c.136718-1.894531-.511719-3.757812-1.808594-5.148437-1.292969-1.394531-3.097656-2.179688-5-2.179688h-181.542969c-1.898437 0-3.707031.785157-5 2.179688-1.296875 1.390625-1.945312 3.25-1.808593 5.148437l6.808593-.503906v6.824219h174.191407l-1.011719 13.652343h-164.816407l-1.554687-20.984374-6.808594.507812v6.824219zm0 0" fill="#54596e"/><path d="m13.367188 88.746094h219.972656l6.066406-81.917969h-232.109375zm0 0" fill="#fff"/><g fill="#54596e"><path d="m13.367188 88.746094v6.824218h219.972656c3.582031 0 6.542968-2.746093 6.808594-6.320312l6.066406-81.917969c.140625-1.898437-.511719-3.757812-1.804688-5.152343-1.292968-1.394532-3.101562-2.179688-5.003906-2.179688h-232.109375c-1.898437 0-3.707031.785156-5 2.179688-1.292969 1.390624-1.945313 3.253906-1.804687 5.152343l6.066406 81.917969c.265625 3.574219 3.226562 6.320312 6.808594 6.320312v-6.824218l6.804687-.507813-5.523437-74.589843h217.40625l-5.054688 68.273437h-213.632812v6.824219l6.804687-.507813zm0 0"/><path d="m86.214844 187.320312c-4-4-10.480469-4-14.480469 0-3.996094 4-3.996094 10.480469 0 14.480469 4 3.996094 10.480469 3.996094 14.480469 0 4-4 4-10.480469 0-14.480469zm0 0"/><path d="m174.960938 187.320312c-4-3.996093-10.480469-3.996093-14.480469 0-3.996094 4-3.996094 10.480469 0 14.480469 4 3.996094 10.480469 3.996094 14.480469 0 4-4 4-10.480469 0-14.480469zm0 0"/><path d="m75.570312 240.140625c.105469-10.714844 95.460938-10.714844 95.566407 0v.226563c0 18.058593-21.390625 32.699218-47.785157 32.699218-26.390624 0-47.785156-14.640625-47.785156-32.699218zm0 0"/></g><path d="m142.683594 252.585938c0-3.769532-9.171875-6.824219-20.480469-6.824219-11.3125 0-20.480469 3.054687-20.480469 6.824219 0 3.769531 9.167969 6.828124 20.480469 6.828124 11.308594 0 20.480469-3.058593 20.480469-6.828124zm0 0" fill="#ff927d"/><path d="m34.617188 41.382812 6.828124 109.226563c.234376 3.765625 3.476563 6.625 7.238282 6.390625 3.765625-.238281 6.625-3.476562 6.390625-7.238281l-6.828125-109.226563c-.234375-3.765625-3.476563-6.625-7.238282-6.390625-3.765624.234375-6.625 3.476563-6.390624 7.238281" fill="#fff"/></svg>