<svg height="471pt" viewBox="0 0 471 471.34851" width="471pt" xmlns="http://www.w3.org/2000/svg"><path d="m120.703125 289.425781 31.691406-31.683593 61.378907 61.398437-31.695313 31.683594zm0 0" fill="#00efd1"/><path d="m182.085938 350.816406-107.820313 107.820313c-16.949219 16.949219-44.429687 16.949219-61.378906 0s-16.949219-44.429688 0-61.378907l107.808593-107.820312zm0 0" fill="#00acea"/><g fill="#fedb41"><path d="m348.195312 129.355469c-3.234374 0-6.152343-1.949219-7.390624-4.9375-1.238282-2.988281-.554688-6.429688 1.734374-8.71875l72.886719-72.894531c3.125-3.121094 8.191407-3.125 11.316407 0s3.125 8.191406 0 11.316406l-72.890626 72.890625c-1.5 1.5-3.535156 2.34375-5.65625 2.34375zm0 0"/><path d="m367.214844 148.367188c-3.234375 0-6.15625-1.949219-7.394532-4.941407-1.238281-2.988281-.550781-6.433593 1.738282-8.71875l72.882812-72.890625c2.011719-2.058594 4.976563-2.878906 7.757813-2.144531 2.785156.738281 4.960937 2.910156 5.695312 5.695313.734375 2.785156-.082031 5.746093-2.140625 7.761718l-72.878906 72.890625c-1.5 1.503907-3.535156 2.347657-5.660156 2.347657zm0 0"/><path d="m328.394531 109.546875c-3.234375 0-6.148437-1.949219-7.386719-4.9375-1.238281-2.992187-.554687-6.429687 1.730469-8.71875l72.882813-72.890625c2.011718-2.058594 4.976562-2.875 7.757812-2.140625 2.785156.734375 4.960938 2.90625 5.695313 5.691406.734375 2.785157-.082031 5.75-2.140625 7.761719l-72.878906 72.890625c-1.5 1.503906-3.535157 2.347656-5.660157 2.34375zm0 0"/></g><path d="m189.074219 293.375-11.316407-11.316406 117.253907-117.253906 11.308593 11.320312-.390624.390625zm0 0" fill="#f4b844"/><path d="m336.339844 192.167969c-16.601563 0-31.132813-5.375-41.589844-15.527344-.183594-.175781-.363281-.351563-.539062-.527344-26.148438-26.160156-17.574219-75.324219 7.257812-100.152343l73.558594-73.554688c2.011718-2.058594 4.976562-2.875 7.761718-2.140625 2.78125.734375 4.957032 2.910156 5.691407 5.691406.734375 2.785157-.082031 5.75-2.140625 7.761719l-73.558594 73.550781c-19.203125 19.199219-26.714844 58.066407-7.25 77.539063l.1875.1875c.046875.039062.089844.082031.132812.125 19.550782 19.035156 58.226563 11.425781 77.214844-7.566406l73.550782-73.546876c3.121093-3.125 8.1875-3.125 11.3125 0 3.125 3.121094 3.125 8.1875 0 11.3125l-73.550782 73.550782c-12.355468 12.355468-30.179687 20.652344-48.898437 22.769531-3.035157.347656-6.085938.523437-9.140625.527344zm0 0" fill="#fedb41"/></svg>